<svg width="71" height="60" viewBox="0 0 71 60" fill="none" xmlns="http://www.w3.org/2000/svg">
<g clip-path="url(#clip0_197_2965)">
<path d="M4.11398 9.44341H20.4217L21.0697 8.59482C21.3881 8.1814 22.0176 8.17052 22.3509 8.57306L23.0656 9.44341H48.3085L49.0268 8.52229C49.2786 8.19953 49.7822 8.20678 50.0192 8.54042L50.6709 9.44341H66.8379C69.1337 9.44341 70.9963 11.2675 70.9963 13.5159V25.4797C70.9963 26.8033 70.3409 28.0472 69.2337 28.8088L61.7686 34.9955C60.9836 35.5395 59.6765 35.8296 58.7137 35.8296H53.2185C53.2185 35.8296 53.2741 17.991 36.0406 17.8061C18.8072 17.6211 17.9555 35.8296 17.9555 35.8296H12.9047C12.0086 35.8296 11.1347 35.554 10.409 35.0391L1.77372 28.9393C0.655439 28.1488 -0.00738525 26.8795 -0.00738525 25.5268V13.4652C-0.00738525 11.2421 1.83297 9.43616 4.10657 9.43616L4.11398 9.44341Z" fill="white"/>
<path d="M2.08105 31.913V56.4787C2.08105 58.4225 3.68813 59.9964 5.6729 59.9964H65.6604C68.0414 59.9964 69.8891 58.2992 69.8891 56.5694V31.942L62.9202 37.4035C62.2389 38.0381 61.0613 38.2303 60.1319 38.3754L53.0408 38.8831C53.0408 38.8831 50.2043 52.1995 35.5037 52.4026C22.125 52.5875 18.0592 38.8831 18.0592 38.8831C18.0592 38.8831 13.238 38.7888 10.9681 37.8641C8.39085 36.8124 2.08105 31.9058 2.08105 31.9058V31.913Z" fill="white"/>
<path d="M20.2809 8.65639L20.4698 1.78422C20.4957 0.790571 21.3252 0 22.3398 0H48.8528C49.8896 0 50.7376 0.81233 50.7598 1.82774L50.9153 8.66002L50.2006 7.64098C49.8785 7.18042 49.186 7.16591 48.8416 7.61197L48.0307 8.66002V3.42702C48.0307 2.96645 47.6493 2.59293 47.179 2.59293H24.2764C23.7691 2.59293 23.3544 2.99547 23.3544 3.49592V8.65639L22.5027 7.58658C22.1657 7.16228 21.5103 7.15866 21.1659 7.5757L20.2809 8.65277V8.65639Z" fill="white"/>
<path d="M35.5963 20.8306C27.6053 20.8306 21.1289 27.1733 21.1289 34.9992C21.1289 42.8251 27.6053 49.1642 35.5963 49.1642C43.5872 49.1642 50.0599 42.8215 50.0599 34.9992C50.0599 27.1769 43.5835 20.8306 35.5963 20.8306ZM39.925 43.3111C36.9256 44.642 31.9563 45.2839 28.0386 40.6819L28.32 42.9919C28.3607 43.4307 28.1163 43.8623 27.5165 43.8623C27.1128 43.8623 26.787 43.5867 26.75 43.1914L26.1427 38.4552C26.0575 37.7191 26.7907 37.5232 27.0684 37.5849L31.8637 38.5713C32.3044 38.6511 32.5487 39.0862 32.4673 39.4779C32.3858 39.9131 31.9452 40.1524 31.5415 40.0726L29.105 39.5758C30.8306 42.0998 35.3408 43.9638 39.1992 41.8895C41.7616 40.5114 43.4354 37.9439 43.4724 35.1007C43.4724 34.6656 43.839 34.3501 44.2796 34.3501C44.7203 34.3501 45.0461 34.7055 45.0424 35.1406C45.0017 38.5749 43.028 41.69 39.925 43.3111ZM44.1204 32.4063L39.3251 31.4199C38.8808 31.3401 38.6364 30.9085 38.7178 30.5133C38.7993 30.0817 39.2436 29.8424 39.6473 29.9221L42.0838 30.419C40.3545 27.8913 35.8444 26.0273 31.9859 28.1053C29.4235 29.4833 27.7534 32.0509 27.7127 34.894C27.7127 35.3292 27.3498 35.6447 26.9055 35.6447C26.4611 35.6447 26.139 35.2893 26.139 34.8541C26.1834 31.4199 28.1571 28.3011 31.2601 26.6837C34.2595 25.3492 39.2325 24.7109 43.1465 29.3093L42.8688 26.9992C42.8318 26.564 43.0725 26.1325 43.6761 26.1325C44.076 26.1325 44.4018 26.4081 44.4426 26.8034L45.0461 31.5395C45.1313 32.2757 44.3981 32.4715 44.1204 32.4063Z" fill="white"/>
</g>
<defs>
<clipPath id="clip0_197_2965">
<rect width="71" height="60" fill="white"/>
</clipPath>
</defs>
</svg>
